<svg width="24" height="24" viewBox="0 0 24 24" fill="none" xmlns="http://www.w3.org/2000/svg">
<path fill-rule="evenodd" clip-rule="evenodd" d="M3 10C3 5.03744 7.03744 1 12 1C16.9626 1 21 5.03744 21 10C21 14.0011 18.3634 17.5092 14.5523 18.6327L12.5749 22.5874C12.4661 22.8052 12.2434 22.9429 12 22.9429C11.7564 22.9429 11.5339 22.8052 11.4249 22.5874L9.44749 18.6327C5.63655 17.509 3 14.0011 3 10ZM12 12.625C13.6569 12.625 15 11.2819 15 9.625C15 7.96815 13.6569 6.625 12 6.625C10.3431 6.625 9 7.96815 9 9.625C9 11.2819 10.3431 12.625 12 12.625Z" fill="black"/>
</svg>
